<mxfile host="65bd71144e">
    <diagram id="PH8OYue90PzU6LuwqXFH" name="Page-1">
        <mxGraphModel dx="692" dy="863" grid="1" gridSize="10" guides="1" tooltips="1" connect="1" arrows="1" fold="1" page="1" pageScale="1" pageWidth="850" pageHeight="1100" math="0" shadow="0">
            <root>
                <mxCell id="0"/>
                <mxCell id="1" parent="0"/>
                <mxCell id="4" value="" style="shape=umlLifeline;participant=umlActor;perimeter=lifelinePerimeter;whiteSpace=wrap;html=1;container=1;collapsible=0;recursiveResize=0;verticalAlign=top;spacingTop=36;outlineConnect=0;size=70;" parent="1" vertex="1">
                    <mxGeometry x="295" y="210" width="40" height="460" as="geometry"/>
                </mxCell>
                <mxCell id="5" value="&lt;font style=&quot;font-size: 20px;&quot;&gt;Web UI&lt;/font&gt;" style="shape=umlLifeline;perimeter=lifelinePerimeter;whiteSpace=wrap;html=1;container=1;collapsible=0;recursiveResize=0;outlineConnect=0;size=60;" parent="1" vertex="1">
                    <mxGeometry x="395" y="210" width="125" height="460" as="geometry"/>
                </mxCell>
                <mxCell id="6" value="send the request" style="html=1;verticalAlign=bottom;endArrow=block;entryX=-0.084;entryY=0.029;entryDx=0;entryDy=0;entryPerimeter=0;labelBackgroundColor=none;" parent="5" source="7" edge="1">
                    <mxGeometry width="80" relative="1" as="geometry">
                        <mxPoint x="60" y="130" as="sourcePoint"/>
                        <mxPoint x="223.16000000000008" y="130.14999999999998" as="targetPoint"/>
                    </mxGeometry>
                </mxCell>
                <mxCell id="7" value="" style="html=1;points=[];perimeter=orthogonalPerimeter;verticalAlign=middle;fillStyle=auto;rounded=0;glass=0;shadow=0;fillColor=#f5f5f5;gradientColor=#b3b3b3;strokeColor=#666666;" parent="5" vertex="1">
                    <mxGeometry x="57.5" y="114" width="10" height="136" as="geometry"/>
                </mxCell>
                <mxCell id="8" value="&lt;font style=&quot;&quot;&gt;&lt;font style=&quot;font-size: 20px;&quot;&gt;Middleware&lt;/font&gt;&lt;br&gt;&lt;/font&gt;" style="shape=umlLifeline;perimeter=lifelinePerimeter;whiteSpace=wrap;html=1;container=1;collapsible=0;recursiveResize=0;outlineConnect=0;size=60;" parent="1" vertex="1">
                    <mxGeometry x="554" y="210" width="140" height="460" as="geometry"/>
                </mxCell>
                <mxCell id="9" value="" style="html=1;points=[];perimeter=orthogonalPerimeter;fontSize=11;fillColor=#f5f5f5;gradientColor=#b3b3b3;strokeColor=#666666;" parent="8" vertex="1">
                    <mxGeometry x="65" y="124.5" width="10" height="22.5" as="geometry"/>
                </mxCell>
                <mxCell id="10" value="&lt;span style=&quot;font-size: 20px;&quot;&gt;Domain&lt;br&gt;Service&lt;br&gt;&lt;/span&gt;" style="shape=umlLifeline;perimeter=lifelinePerimeter;whiteSpace=wrap;html=1;container=1;collapsible=0;recursiveResize=0;outlineConnect=0;size=60;" parent="1" vertex="1">
                    <mxGeometry x="905" y="210" width="120" height="460" as="geometry"/>
                </mxCell>
                <mxCell id="11" value="&lt;font style=&quot;font-size: 11px;&quot;&gt;pass the request&lt;br&gt;&lt;/font&gt;" style="html=1;verticalAlign=bottom;endArrow=block;fontSize=14;labelBackgroundColor=none;entryX=0.043;entryY=0.088;entryDx=0;entryDy=0;entryPerimeter=0;" parent="10" edge="1">
                    <mxGeometry relative="1" as="geometry">
                        <mxPoint x="-101.5" y="160" as="sourcePoint"/>
                        <mxPoint x="55.430000000000064" y="159.93599999999992" as="targetPoint"/>
                    </mxGeometry>
                </mxCell>
                <mxCell id="12" value="" style="html=1;points=[];perimeter=orthogonalPerimeter;rounded=0;shadow=0;glass=0;sketch=0;fillStyle=auto;fontSize=14;fillColor=#f5f5f5;gradientColor=#b3b3b3;strokeColor=#666666;" parent="10" vertex="1">
                    <mxGeometry x="55" y="158" width="10" height="72" as="geometry"/>
                </mxCell>
                <mxCell id="13" value="&lt;font style=&quot;font-size: 11px;&quot;&gt;user clicks on logout&lt;br&gt;&lt;/font&gt;" style="html=1;verticalAlign=bottom;endArrow=block;fontSize=22;labelBackgroundColor=none;" parent="1" target="7" edge="1">
                    <mxGeometry width="80" relative="1" as="geometry">
                        <mxPoint x="315" y="330" as="sourcePoint"/>
                        <mxPoint x="445" y="330" as="targetPoint"/>
                        <Array as="points"/>
                        <mxPoint as="offset"/>
                    </mxGeometry>
                </mxCell>
                <mxCell id="14" value="&lt;font style=&quot;font-size: 20px;&quot;&gt;Application Service&lt;/font&gt;" style="shape=umlLifeline;perimeter=lifelinePerimeter;whiteSpace=wrap;html=1;container=1;collapsible=0;recursiveResize=0;outlineConnect=0;size=60;" parent="1" vertex="1">
                    <mxGeometry x="735" y="210" width="127" height="460" as="geometry"/>
                </mxCell>
                <mxCell id="15" value="" style="html=1;points=[];perimeter=orthogonalPerimeter;rounded=0;shadow=0;glass=0;sketch=0;fillStyle=auto;fontSize=14;fillColor=#f5f5f5;gradientColor=#b3b3b3;strokeColor=#666666;" parent="14" vertex="1">
                    <mxGeometry x="58.5" y="140" width="10" height="110" as="geometry"/>
                </mxCell>
                <mxCell id="18" value="response the final message" style="html=1;verticalAlign=bottom;endArrow=open;dashed=1;endSize=8;labelBackgroundColor=none;fontSize=9;exitX=-0.092;exitY=0.877;exitDx=0;exitDy=0;exitPerimeter=0;" parent="14" edge="1">
                    <mxGeometry relative="1" as="geometry">
                        <mxPoint x="61.499999999999886" y="238.0039999999999" as="sourcePoint"/>
                        <mxPoint x="-272" y="238" as="targetPoint"/>
                    </mxGeometry>
                </mxCell>
                <mxCell id="34" value="response" style="html=1;verticalAlign=bottom;endArrow=open;dashed=1;endSize=8;labelBackgroundColor=none;fontSize=9;" edge="1" parent="14">
                    <mxGeometry relative="1" as="geometry">
                        <mxPoint x="226" y="226" as="sourcePoint"/>
                        <mxPoint x="64.16666666666652" y="226" as="targetPoint"/>
                    </mxGeometry>
                </mxCell>
                <mxCell id="19" value="" style="html=1;points=[];perimeter=orthogonalPerimeter;fillColor=#f5f5f5;gradientColor=#b3b3b3;strokeColor=#666666;" parent="1" vertex="1">
                    <mxGeometry x="310" y="324" width="10" height="136" as="geometry"/>
                </mxCell>
                <mxCell id="20" value="&lt;font style=&quot;font-size: 11px;&quot;&gt;checks jwt and pass the request&lt;br&gt;&lt;/font&gt;" style="html=1;verticalAlign=bottom;endArrow=block;fontSize=14;labelBackgroundColor=none;" parent="1" edge="1">
                    <mxGeometry relative="1" as="geometry">
                        <mxPoint x="630" y="351" as="sourcePoint"/>
                        <mxPoint x="794" y="351" as="targetPoint"/>
                    </mxGeometry>
                </mxCell>
                <mxCell id="21" value="&lt;span style=&quot;font-size: 20px;&quot;&gt;Database&lt;br&gt;&lt;/span&gt;" style="shape=umlLifeline;perimeter=lifelinePerimeter;whiteSpace=wrap;html=1;container=1;collapsible=0;recursiveResize=0;outlineConnect=0;size=60;" parent="1" vertex="1">
                    <mxGeometry x="1060" y="210" width="120" height="460" as="geometry"/>
                </mxCell>
                <mxCell id="22" value="&lt;font style=&quot;font-size: 11px;&quot;&gt;session is deleted from db&lt;br&gt;&lt;/font&gt;" style="html=1;verticalAlign=bottom;endArrow=block;fontSize=14;labelBackgroundColor=none;entryX=-0.042;entryY=0.034;entryDx=0;entryDy=0;entryPerimeter=0;" parent="21" target="23" edge="1">
                    <mxGeometry relative="1" as="geometry">
                        <mxPoint x="-90" y="176" as="sourcePoint"/>
                        <mxPoint x="55.440000000000055" y="174.68799999999987" as="targetPoint"/>
                    </mxGeometry>
                </mxCell>
                <mxCell id="23" value="" style="html=1;points=[];perimeter=orthogonalPerimeter;rounded=0;shadow=0;glass=0;sketch=0;fillStyle=auto;fontSize=14;fillColor=#f5f5f5;gradientColor=#b3b3b3;strokeColor=#666666;" parent="21" vertex="1">
                    <mxGeometry x="55" y="175" width="10" height="43" as="geometry"/>
                </mxCell>
                <mxCell id="30" value="ok message" style="html=1;verticalAlign=bottom;endArrow=open;dashed=1;endSize=8;labelBackgroundColor=none;fontSize=9;exitX=-0.092;exitY=0.877;exitDx=0;exitDy=0;exitPerimeter=0;entryX=1.12;entryY=0.746;entryDx=0;entryDy=0;entryPerimeter=0;" edge="1" parent="21">
                    <mxGeometry relative="1" as="geometry">
                        <mxPoint x="55" y="216.4739999999999" as="sourcePoint"/>
                        <mxPoint x="-88.79999999999995" y="216.17200000000003" as="targetPoint"/>
                    </mxGeometry>
                </mxCell>
                <mxCell id="29" value="show the message" style="html=1;verticalAlign=bottom;endArrow=open;dashed=1;endSize=8;labelBackgroundColor=none;fontSize=9;" parent="1" edge="1">
                    <mxGeometry relative="1" as="geometry">
                        <mxPoint x="451" y="457" as="sourcePoint"/>
                        <mxPoint x="321.0003448275861" y="457.0039999999999" as="targetPoint"/>
                    </mxGeometry>
                </mxCell>
            </root>
        </mxGraphModel>
    </diagram>
</mxfile>